<svg width="365" height="509" viewBox="0 0 365 509" fill="none" xmlns="http://www.w3.org/2000/svg">
<path d="M171.992 66.7337C145.91 81.9886 73.8062 76.3922 41.6126 70.7702C33.7513 69.3974 -11.8481 32.684 -35.9249 6.82055C-22.1483 41.6071 -0.767785 110.198 -25.458 106.267C-50.1483 102.337 -85.7786 33.7856 -100.507 0.00128129C-95.6863 47.3778 -88.0379 143.539 -96.0133 149.172C-103.989 154.804 -182.151 134.163 -220.235 123.139C-188.656 136.119 -127.255 166.289 -134.289 183.128C-141.323 199.967 -208.626 235.957 -241.398 251.848C-207.315 238.989 -139.287 215.544 -139.837 224.638C-140.387 233.732 -174.5 245.491 -191.487 250.234C-173.412 247.031 -136.422 241.813 -133.066 246.566C-129.71 251.318 -181.514 283.749 -207.835 299.371C-175.934 288.712 -110.538 271.412 -104.165 287.488C-97.7924 303.564 -191.233 357.552 -238.75 382.537C-191.548 375.911 -95.3542 365.549 -88.1876 377.107C-81.8522 387.325 -84.9714 422.825 -88.1026 445.092C-85.0333 436.729 -76.0021 424.197 -54.505 410.696C-16.5527 386.86 50.3134 525.615 41.9828 506.767C33.6523 487.919 33.5422 404.9 49.9545 389.352C63.0844 376.914 141.794 408.907 179.507 426.459C155.263 410.936 106.944 376.605 107.624 363.463C108.303 350.32 197.032 391.33 241.312 413.477C211.487 392.992 153.69 347.943 161.097 331.633C168.504 315.322 227.488 315.742 256.054 317.99C218.328 310.999 144.29 294.436 149.947 284.11C155.604 273.784 244.642 287.139 288.454 295.108C264.412 283.399 215.32 253.966 211.281 229.911C207.242 205.857 312.059 147.526 364.973 121.368C306.978 130.341 186.894 144.253 170.519 128.118C154.144 111.984 186.265 75.779 204.373 59.6931C169.319 89.3956 100.14 145.178 103.851 130.686C108.489 112.571 204.595 47.6651 171.992 66.7337Z" fill="#FDEC38"/>
</svg>
