<svg width="1099" height="814" viewBox="0 0 1099 814" fill="none" xmlns="http://www.w3.org/2000/svg">
<path d="M659.887 25.5603C626.386 63.4999 533.118 130.477 469.705 133.034C454.22 133.659 359.173 92.8399 292.204 55.5361C348.56 113.071 386.036 172.605 337.746 175.256C289.457 177.907 213.881 139.791 156.705 84.4477C208.192 168.322 303.575 258.181 294.205 271.534C284.835 284.888 78.9638 287.756 0.000745983 282.862C68.9413 293.871 244.257 316.263 246.705 349.534C249.153 382.805 122.842 482.541 77.7918 524.279C127.952 487.512 230.075 418.148 237.284 434.831C244.493 451.515 193.286 486.302 166.781 501.61C196.647 488.66 258.97 464.58 269.34 471.856C279.711 479.133 215.098 558.349 181.495 597.047C229.687 565.126 274.325 541.754 300.379 568.34C326.433 594.926 264.081 695.823 200.518 759.86C280.076 729.19 445.046 672.372 468.462 690.464C489.163 706.457 515.544 771.97 529.962 813.526C527.979 797.169 533.036 770.904 559.809 737.954C607.077 679.782 743.379 844.84 716.379 799.34C693.664 761.062 714.136 692.628 729.848 657.983C742.418 630.267 913.922 657.057 998.103 673.916C940.161 655.402 821.62 612.356 810.993 588.292C800.365 564.227 998.162 603.377 1098.39 625.96C1025.86 600.667 880.47 541.967 879.175 509.504C877.879 477.042 985.146 454.466 1038.94 447.236C964.267 449.503 849.272 450.469 850.205 429.534C851.138 408.599 990.422 395.891 1077.01 392.987C1022.87 381.297 907.353 347.428 878.327 305.471C849.302 263.515 932.921 154.332 1005.21 86.0351C908.205 125.225 756.84 160.023 712.607 137.288C668.374 114.554 693.914 36.2912 712.213 0.00189943C675.492 67.6501 613.557 160.741 607.205 133.034C599.265 98.4 701.762 -21.8642 659.887 25.5603Z" fill="#EEEEEE"/>
</svg>
