<svg width="283" height="503" viewBox="0 0 283 503" fill="none" xmlns="http://www.w3.org/2000/svg">
<path d="M408.605 65.9603C382.825 81.0386 311.555 75.507 279.734 69.9501C271.964 68.5932 226.893 32.3047 203.094 6.74062C216.712 41.1246 237.845 108.921 213.44 105.036C189.036 101.151 153.818 33.3935 139.259 0.000284174C144.025 46.8285 151.585 141.877 143.702 147.444C135.818 153.011 58.5608 132.609 20.9173 121.712C52.1315 134.543 112.822 164.364 105.869 181.007C98.9166 197.651 32.3927 233.225 -0.000231 248.932C33.6882 236.222 100.929 213.048 100.385 222.037C99.8415 231.025 66.1235 242.648 49.3325 247.336C67.1986 244.171 103.76 239.014 107.078 243.711C110.395 248.408 59.1906 280.464 33.1738 295.905C64.706 285.369 129.345 268.27 135.644 284.159C141.943 300.049 49.5841 353.413 2.61727 378.108C49.2722 371.559 144.353 361.317 151.437 372.741C157.699 382.841 154.616 417.93 151.521 439.939C154.554 431.673 163.481 419.286 184.729 405.941C222.242 382.381 288.335 519.53 280.1 500.9C271.866 482.271 271.757 400.213 287.98 384.845C300.958 372.55 378.756 404.173 416.033 421.522C392.069 406.179 344.31 372.245 344.981 359.255C345.653 346.265 433.355 386.799 477.122 408.69C447.643 388.442 390.515 343.915 397.836 327.793C405.157 311.671 463.458 312.086 491.693 314.308C454.404 307.398 381.224 291.027 386.815 280.82C392.406 270.614 480.414 283.815 523.718 291.691C499.955 280.117 451.431 251.026 447.439 227.249C443.446 203.473 547.051 145.817 599.352 119.962C542.028 128.831 423.334 142.582 407.149 126.635C390.963 110.687 422.713 74.9009 440.611 59.0011C405.963 88.3599 337.584 143.496 341.252 129.172C345.837 111.267 440.831 47.1124 408.605 65.9603Z" fill="#FDEC38"/>
</svg>
