<svg width="275" height="706" viewBox="0 0 275 706" fill="none" xmlns="http://www.w3.org/2000/svg">
<path d="M-114.539 65.0971C-96.5569 76.2901 -61.2064 112.278 -59.246 168.567C-59.806 188.374 -59.2463 195.055 -59.1621 174.038C-59.1547 172.193 -59.1832 170.37 -59.246 168.567C-57.8267 118.363 -49.215 -16.1653 -7.44042 2.21375C39.165 22.7182 15.6703 142.847 -1.90277 200.349C20.7681 129.686 78.3841 2.9396 127.481 61.2556C176.578 119.572 127.971 254.118 97.5308 314.102C123.048 286.044 178.246 239.872 194.896 279.647C215.708 329.365 153.062 404.054 138.83 415.213C127.445 424.141 80.4193 455.539 58.3295 470.123C126.016 470.437 263.827 489.159 273.581 561.528C283.334 633.897 156.158 578.675 91.3508 542.018C163.238 586.92 288.786 681.601 215.886 701.111C142.986 720.622 17.5227 667.912 -36.0962 639.118L-297.789 255.458C-264.108 161.791 -180.305 -7.4151 -114.539 65.0971Z" fill="#FDEC38"/>
<path d="M-59.246 168.567C-61.2064 112.278 -96.5569 76.2902 -114.539 65.0971C-180.305 -7.4151 -264.108 161.791 -297.789 255.458L-36.0962 639.118C17.5227 667.912 142.986 720.622 215.886 701.111C288.786 681.601 163.238 586.92 91.3508 542.018C156.158 578.675 283.334 633.897 273.581 561.528C263.827 489.159 126.016 470.437 58.3295 470.123C80.4194 455.539 127.445 424.141 138.83 415.213C153.062 404.054 215.708 329.365 194.896 279.647C178.246 239.872 123.048 286.044 97.5308 314.102C127.971 254.118 176.578 119.572 127.481 61.2556C78.3841 2.9396 20.7681 129.686 -1.90277 200.349C15.6703 142.847 39.165 22.7182 -7.44041 2.21374C-49.215 -16.1653 -57.8267 118.363 -59.246 168.567ZM-59.246 168.567C-59.806 188.374 -59.2463 195.055 -59.1621 174.038C-59.1547 172.193 -59.1832 170.37 -59.246 168.567Z" stroke="#FDEC38"/>
</svg>
