<svg width="316" height="428" viewBox="0 0 316 428" fill="none" xmlns="http://www.w3.org/2000/svg">
<path fill-rule="evenodd" clip-rule="evenodd" d="M-12.0289 66.4553C-37.8351 85.8292 -52.2727 106.169 -43.6933 111.258C-39.6122 113.737 -31.2199 108.917 -28.3844 102.498C-6.31253 53.0235 110.497 25.4613 160.748 18.1553C251.695 5.08559 306.539 58.1874 283.569 136.937C276.131 162.363 266.634 170.49 218.773 193.008C176.233 212.917 156.028 233.295 127.771 286.085C112.553 314.453 103.424 328.408 89.0569 354C25.1014 467.612 -88.7405 402.082 -91.4093 249.965C-92.2846 200.195 -80.1964 150.062 -58.0272 132.481C-49.3057 125.573 -54.7735 124.489 -65.7746 131.055C-94.0825 147.952 -111.832 197.305 -112.614 252.034C-114.894 405.782 -5.87045 479.67 85.4589 386.209C102.085 369.1 103.189 367.498 131.773 317.728C181.495 231.329 191.517 219.108 223.786 205.141C279.62 181.078 300.539 163.107 309.918 131.228C335.024 45.721 271.183 -12.5949 168.567 2.33494C86.3666 14.3429 30.5046 34.2609 -12.0289 66.4553ZM32.4904 96.4128C-8.92349 125.67 -49.0722 178.185 -41.334 193.229C-40.962 193.953 -43.1741 203.97 -46.2813 215.656C-68.1363 298.278 -32.6852 361.063 16.6886 326.487C29.4497 317.546 34.2073 311.114 56.7342 271.388C86.7054 218.521 93.9817 211.531 149.282 184.384C262.371 128.793 251.513 76.6615 229.604 61.0004C196.243 37.0502 89.4681 56.164 32.4904 96.4128ZM137.829 176.095C80.0247 204.169 66.9326 216.898 32.5148 278.847C8.9879 321.061 2.68195 326.528 -11.691 317.335C-55.8667 289.063 -45.8327 168.12 45.552 103.742C104.274 62.4518 199.125 50.8352 216.939 84.444C240.244 128.388 163.899 163.37 137.829 176.095ZM38.3466 140.184C19.5303 157.465 -22.6474 212.513 -10.6681 235.803C-5.38532 246.073 15.7361 236.682 37.1038 214.474C73.1142 177.098 94.7913 160.943 141.91 135.276C176.462 116.543 176.732 90.48 142.519 91.8058C122.566 92.5605 56.7605 123.143 38.3466 140.184ZM147.963 107.841C152.279 116.231 141.707 126.701 120.08 135.45C104.132 141.944 98.5724 145.454 69.9184 167.473C49.792 182.889 37.9815 193.34 23.279 208.733C17.3444 214.923 11.6495 220.214 10.6957 220.406C6.59766 220.961 19.0893 170.585 58.9834 141.1C73.9215 129.915 139.109 90.6272 147.963 107.841Z" fill="#222831"/>
</svg>
