<svg width="610" height="979" viewBox="0 0 610 979" fill="none" xmlns="http://www.w3.org/2000/svg">
<path fill-rule="evenodd" clip-rule="evenodd" d="M707.058 239.188C751.505 290.451 771.655 338.623 751.156 345.235C741.376 348.502 726.187 334.868 723.433 320.433C701.75 209.08 470.72 100.416 369.076 63.0067C185.033 -4.38523 43.781 80.0934 52.8161 251.911C55.7778 307.395 71.6403 328.306 160.73 395.859C239.968 455.685 272.179 506.51 305.176 627.424C322.976 692.416 335.175 725.121 352.57 784.036C430.163 1045.67 701.179 962.012 782.273 651.106C808.809 549.386 808.368 441.136 770.651 395.174C755.808 377.111 767.802 377.325 787.589 395.705C838.506 443.002 851.194 552.178 825.668 664.813C754.133 981.271 489.062 1084.22 344.121 851.724C317.783 809.205 316.264 805.424 281.087 690.56C219.804 491.114 204.876 461.569 144.206 418.515C39.1797 344.235 4.27657 298.031 0.450378 228.442C-9.70419 41.808 152.982 -49.3545 360.547 27.0597C526.792 88.3703 633.933 154.159 707.058 239.188ZM598.924 280.789C671.162 359.292 729.206 484.95 705.528 512.363C704.39 513.681 704.052 535.22 704.761 560.583C709.537 739.846 604.107 852.843 517.833 759.877C495.537 735.84 488.762 720.521 461.288 628.965C424.74 507.127 412.966 489.539 310.59 409.17C101.267 244.659 149.889 142.547 203.559 120.19C285.336 85.9363 499.537 172.79 598.924 280.789ZM338.698 397.273C445.859 480.663 466.968 512.618 508.324 655.074C536.659 752.18 547.155 766.211 581.829 753.762C688.407 715.467 727.415 462.853 567.923 289.998C465.399 179.085 272.456 112.933 218.457 173.939C147.824 253.7 290.399 359.534 338.698 397.273ZM564.93 367.98C595.772 411.831 656.809 543.59 620.154 586.027C603.989 604.742 564.402 576.051 530.661 520.954C473.772 428.205 436.379 385.389 350.408 311.706C287.321 257.855 299.692 204.262 370.708 222.247C412.133 232.697 534.813 324.801 564.93 367.98ZM351.344 252.717C338.139 268.005 355.089 294.202 396.053 321.802C426.24 342.241 436.145 351.922 485.245 409.882C519.757 450.491 539.312 477.203 562.472 515.344C571.833 530.69 581.137 544.088 583.04 544.906C591.35 547.874 590.184 438.945 521.243 360.653C495.5 331.04 378.437 221.35 351.344 252.717Z" fill="#FDEC38"/>
</svg>
