<svg width="347" height="361" viewBox="0 0 347 361" fill="none" xmlns="http://www.w3.org/2000/svg">
<path fill-rule="evenodd" clip-rule="evenodd" d="M304.113 9.98517C334.479 18.8268 354.447 32.7154 347.968 40.6275C344.905 44.4468 335.494 42.9647 330.812 37.9551C294.52 -0.576054 175.935 15.9991 126.349 27.4127C36.6502 48.2146 1.68727 118.155 48.0072 183.913C62.9825 205.136 74.4702 209.328 126.58 213.102C172.862 216.356 198.27 228.182 241.424 267.582C264.645 288.743 277.614 298.554 299.163 317.412C394.992 401.063 481.585 297.952 436.384 153.809C421.598 106.649 394.496 63.8634 368.116 55.3853C357.741 52.0586 362.547 49.0474 374.96 51.2236C406.903 56.8232 439.089 96.8134 456.991 148.039C507.361 291.915 427.925 401.14 312.652 346.417C291.638 336.366 290.095 335.26 247.583 298.821C173.685 235.601 160.419 227.746 125.667 226.346C65.5687 224.02 40.2438 214.72 21.4173 188.13C-29.032 116.79 12.7628 38.6671 114.027 15.3688C195.159 -3.24863 253.983 -4.83451 304.113 9.98517ZM271.609 54.3849C319.764 66.8477 374.023 101.661 371.459 118.637C371.335 119.453 376.559 128.076 383.149 137.944C429.634 207.752 415.96 279.748 358.646 265.176C343.831 261.407 337.335 257.084 303.673 227.894C258.882 189.045 249.841 185.114 189.279 179.692C65.4042 168.532 59.2722 115.515 74.9799 92.8004C98.8671 58.116 205.358 37.2418 271.609 54.3849ZM197.458 167.722C260.669 173.106 276.983 180.32 328.808 226.099C364.191 257.267 371.841 260.117 382.486 246.234C415.196 203.545 367.817 93.3671 261.614 66.0369C193.395 48.5488 100.478 72.1393 94.254 110.255C86.1031 160.097 168.931 165.234 197.458 167.722ZM279.826 97.7132C302.956 107.13 359.92 143.588 355.95 169.868C354.199 181.457 331.374 180.306 304.298 167.182C258.682 145.111 233.212 137.796 180.814 130.789C142.418 125.734 133.99 101.302 166.606 90.0969C185.622 83.5448 257.15 88.3764 279.826 97.7132ZM166.512 107.171C165.082 116.638 178.315 122.644 201.415 123.007C218.462 123.315 224.795 124.594 258.67 134.889C282.449 142.073 296.843 147.611 315.508 156.747C323.035 160.412 330.055 163.32 331.013 163.153C335.044 162.184 307.486 119.317 260.69 106.087C243.123 100.997 169.446 87.7463 166.512 107.171Z" fill="#222831"/>
</svg>
