<svg width="687" height="889" viewBox="0 0 687 889" fill="none" xmlns="http://www.w3.org/2000/svg">
<path fill-rule="evenodd" clip-rule="evenodd" d="M5.93304 631.087C32.6921 686.931 65.3631 720.929 77.9467 705.705C84.0428 698.481 78.0983 680.749 67.165 673.369C-17.0229 616.067 -26.1175 380.724 -21.5515 280.802C-13.0016 99.9972 105.767 8.64536 244.171 76.1832C288.849 98.0305 300.554 118.871 325.192 218.554C346.895 307.123 377.552 352.356 465.678 422.658C513.024 460.501 535.721 482.316 578.201 517.697C766.728 675.113 603.465 877.692 319.1 838.788C226.063 826.064 137.036 788.002 112.301 739.757C102.587 720.779 98.5883 731.107 106.842 754.422C128.081 814.418 213.607 863.272 315.285 880.66C600.896 929.668 777.99 738.89 636.906 534.037C611.047 496.718 608.46 494.104 526.078 424.043C383.101 302.219 363.958 279.17 349.609 212.314C324.977 96.665 299.064 50.7408 243.066 23.2441C92.8459 -50.4089 -38.8912 56.9414 -48.1967 260.997C-55.5604 424.468 -38.6599 538.969 5.93304 631.087ZM77.8488 553.122C117.375 642.209 200.689 735.577 231.516 724.877C232.998 724.362 250.86 731.572 271.508 741.007C417.528 807.496 547.321 756.697 500.766 650.575C488.726 623.146 478.464 612.021 412.601 556.66C324.951 482.999 314.56 466.811 283.989 351.308C221.33 115.081 120.28 121.102 83.1779 159.203C26.4902 217.193 23.4752 430.555 77.8488 553.122ZM264.403 371.196C295.797 491.842 314.774 521.013 417.737 605.961C487.872 663.991 495.777 677.849 473.451 703.159C404.799 780.944 183.109 726.354 96.2275 529.824C40.5454 403.561 53.2145 215.579 122.272 190.651C212.571 158.031 250.126 316.766 264.403 371.196ZM161.514 554.413C186.903 596.046 274.201 694.096 321.923 677.532C342.968 670.227 333.113 626.395 299.469 578.368C242.863 497.444 220.607 450.57 189.834 351.42C167.432 278.738 118.973 270.658 109.067 337.632C103.256 376.686 136.426 513.633 161.514 554.413ZM140.91 331.685C158.102 325.717 173.783 349.329 182.26 393.958C188.59 426.882 193.117 438.72 223.774 500.874C245.215 544.516 260.413 570.533 283.772 603.612C293.157 616.957 300.955 629.575 300.966 631.487C300.519 639.624 211.186 600.707 170.686 514.512C155.252 482.195 105.638 343.928 140.91 331.685Z" fill="#FDEC38"/>
</svg>
