<svg width="1920" height="804" viewBox="0 0 1920 804" fill="none" xmlns="http://www.w3.org/2000/svg">
<path d="M-2 0C26.7816 138.025 123.314 182.312 220.03 204.257C318.444 226.207 399.552 387.558 496.268 409.503C592.984 431.448 674.046 265.55 770.762 287.494C931.068 337.566 997.503 271.655 1094.43 228.698C1191.35 185.741 1205.67 328.395 1302.32 371.974C1404.13 356.383 1598.81 195.41 1687.05 148.268C1765.81 95.4626 1873.51 142.96 1922 71.0009L1922 438.326L1924 438.332L1924 698.476C1820.86 638.735 1731.85 616.778 1619.87 637.358C1448 668.948 1333.5 803.382 1216.94 803.383C1115.48 800.324 877 654.501 765.966 679.391C650.322 702.685 591.517 792.276 485.848 756.754C380.179 721.232 252.555 613.58 133.055 613.615C82.226 613.631 38.3532 625.533 -0.000229669 648.86L-0.000103044 577.646C-0.672259 577.646 -1.33913 577.646 -2.00011 577.644L-2 0Z" fill="#A39DFF"/>
</svg>
