<svg width="1920" height="757" viewBox="0 0 1920 757" fill="none" xmlns="http://www.w3.org/2000/svg">
<path d="M1223.87 81.2236C1309.77 71.3006 1400.63 -9.07631 1486.52 0.84668C1572.42 9.7774 1676.09 69.3176 1757.17 73.4043C1810.11 75.3866 1865.77 57.867 1921 37.4189V737.618C1879.93 759.552 1825.77 764.796 1762.55 740.788C1676.67 708.174 1589.88 668.849 1504 657.603C1418.12 646.356 1305.06 730.666 1208.77 730.666C1103.34 726.543 1052.58 660.939 966.699 649.692C880.816 639.571 798.694 708.173 712.811 730.666C626.927 752.034 541.043 708.174 455.16 708.174C369.277 708.174 269.5 759.603 154 685.103C84.7268 658.796 54.2618 676.035 0 694.9V353.114H-1V60.2168C43.2633 79.2945 101.748 83.6796 171 94.1016C268.791 108.819 368.705 48.4779 454.598 19.7012C540.491 -9.07559 626.384 52.9434 712.277 52.9434C798.17 52.9432 884.063 19.2479 969.956 38.1016C1055.85 57.9476 1137.98 90.1543 1223.87 81.2236Z" fill="#A39DFF"/>
</svg>
