<svg width="872" height="490" viewBox="0 0 872 490" fill="none" xmlns="http://www.w3.org/2000/svg">
<path d="M629.102 48.245C625.529 49.2852 621.529 50.2729 617.376 51.1821C607.971 53.2381 597.78 54.9063 589.354 56.0688C585.598 56.5873 587.088 54.6026 584.451 54.9001C579.294 55.4869 574.845 57.3593 569.737 57.8497C568.041 58.0056 569.482 55.0593 567.712 55.2805C558.05 56.5053 549.333 59.372 539.744 61.3395C517.787 65.8546 496.214 71.1052 475.145 77.3812C450.897 84.5963 427.317 93.4757 403.907 104.205C389.489 110.759 371.26 117.967 357.328 127.097C355.705 128.162 357.805 129.508 357.576 129.849C353.945 135.149 353.409 130.311 349.817 131.705C344.863 133.632 339.858 135.931 334.917 138.475C325.809 143.16 316.953 148.675 309.218 154.099C304.158 157.662 311.737 158.136 305.148 159.319C304.694 159.405 304.785 156.584 303.215 157.264C299.646 158.815 293.672 163.05 291.056 164.48C285.989 167.236 285.194 167.768 280.593 170.66C274.286 174.604 266.205 178.409 259.796 183.206C258.433 184.235 261.635 185.025 259.581 186.848C257.523 188.671 251.395 192.434 249.058 193.293C246.72 194.15 246.543 192.003 245.947 191.876C240.975 190.762 236.822 199.593 236.009 200.287C220.945 212.875 205.49 219.895 190.481 230.376C184.247 234.737 177.969 239.526 171.822 244.231C166.73 248.126 161.729 251.966 156.895 255.456C144.192 264.63 132.809 271.673 121.082 281.335C119.842 282.356 123.075 283.39 121.575 284.634C106.875 296.862 92.3343 308.939 77.9769 320.876C76.785 321.867 75.6448 322.821 74.473 323.822C72.9827 325.097 72.931 321.555 71.3278 322.74C61.3559 329.624 45.9119 344.039 52.9352 355.195C49.101 361.911 45.5631 370.778 41.4719 377.406C38.8343 381.694 37.4506 376.421 37.0223 382.552C36.961 383.458 38.1077 383.292 38.8241 383.633C39.2077 383.808 39.4715 384.109 39.3902 384.742C38.3882 392.308 37.037 400.64 39.0316 407.923C39.4417 409.383 41.514 408.729 41.9406 409.089C45.3382 411.952 41.6525 418.409 41.7455 419.877C41.8497 427.155 44.5653 432.753 47.9031 437.157C49.0254 438.6 50.3104 439.823 51.9257 441.058C53.2631 442.038 53.3597 438.62 54.6168 439.377C58.8964 441.958 66.2706 444.06 74.3528 446.589C77.2543 447.578 80.5687 448.338 84.1871 449.047C86.6379 449.518 84.193 451.776 85.3609 452.122C90.7246 453.571 92.0966 448.989 97.4015 450.049C98.5028 450.26 97.8701 452.336 98.0709 452.566C101.31 456.172 104.158 451.058 104.98 450.937C115.543 449.265 122.592 454.307 132.964 453.119C134.212 452.969 131.285 450.463 134.781 450.202C135.907 450.115 137.059 450.03 138.235 449.946C160.364 448.356 183.767 447.425 205.786 447.451C209.415 447.448 207.024 449.65 207.271 449.872C211.298 453.331 213.192 448.025 214.357 447.722C223.427 445.475 232.454 448.843 238.053 442.126C277.218 440.028 315.282 431.321 354.488 430.315C354.988 430.296 354.523 432.921 355.52 432.872C355.948 432.851 356.358 432.827 356.75 432.799C367.269 432.04 364.829 428.596 371.489 422.761C373.244 421.238 380.144 425.871 380.757 426.189C382.947 427.379 381.619 431.416 382.314 431.598C388.06 432.972 384.969 420.967 392.113 419.654C392.341 419.633 391.813 422.045 392.454 422.157C394.439 422.514 396.118 421.284 398.083 421.715C402.588 422.719 405.18 428.35 410.909 423.701C411.63 423.1 409.09 416.448 415.509 415.552C418.074 415.204 429.268 412.896 432.5 412.713C435.728 412.535 434.013 415.18 434.255 415.232C443.305 416.477 440.34 418.33 445.461 421.815C450.584 425.279 447.321 415.21 448.814 413.71C450.315 412.212 457.012 413.361 458.707 413.886C460.407 414.412 458.792 416.211 460.248 416.407C469.889 417.654 463.138 410.48 465.755 408.233C471.921 402.915 478.951 409.403 485.489 408.794C487.255 408.629 485.476 407.192 486.983 406.701C492.946 404.779 497.127 406.369 503.56 402.689C504.618 402.088 509.217 396.286 513.561 398.853C514.182 399.224 513.138 401.444 515.833 401.297C519.84 401.084 526.934 399.945 530.919 398.386C533.902 397.225 529.668 394.893 533.762 394.994C535.577 395.042 532.804 397.585 536.179 397.521C539.51 397.469 547.701 395.529 550.831 394.746C553.937 393.969 551.687 391.991 551.903 391.774C553.204 390.516 558.928 388 559.455 387.881C582.569 382.287 604.932 380.132 627.097 374.559C630.448 373.716 633.659 372.831 636.931 371.833C638.89 371.236 636.945 369.083 637.238 368.966C643.956 366.17 640.107 374.163 645.514 375.147C643.56 370.279 646.574 370.492 651.364 368.674C653.601 367.81 651.839 366.185 652 365.931C654.767 362.061 658.113 365.266 658.966 365.878C661.967 368.164 663.638 364.09 665.681 365.6C667.768 367.082 664.919 370.871 669.564 369.587C670.367 367.443 665.677 363.672 668.999 361.959C678.338 357.093 694.907 354.251 706.617 350.59C710.82 349.359 714.371 348.396 716.953 347.47C727.148 343.771 730.189 341.812 736.274 339.701C736.56 339.6 736.838 339.498 737.107 339.397C746.993 335.655 741.995 334.224 747.561 329.662C753.26 324.948 754.14 334.437 755.928 335.674C757.706 336.911 757.821 334.651 759.436 335.003C761.053 335.355 759.177 337.77 762.033 336.753C764.901 335.735 770.629 328.927 770.63 326.664C770.641 321.876 765.331 319.68 773.01 317.362C773.454 317.23 773.255 319.983 774.898 319.372C783.039 316.286 791.039 312.426 798.846 308.464C803.451 306.127 807.869 303.515 812.177 300.729C813.757 299.702 814.136 302.77 815.087 302.177C824.922 295.579 818.851 295.028 819.379 287.412C823.205 292.744 828.757 292.969 834.243 285.62C837.43 281.203 834.536 280.342 834.736 276.418C834.787 275.254 838.396 273.106 837.598 271.833C834.977 267.695 829.114 268.255 835.092 261.606C835.36 261.312 836.842 263.547 837.618 262.441C839.591 259.628 840.225 257.406 840.517 255.254C840.77 252.203 840.097 249.51 841.116 244.763C842.591 238.83 846.052 227.027 845.434 218.85C852.755 218.329 849.993 210.318 844.373 208.336C843.514 203.105 841.72 197.649 840.749 192.523C840.411 190.761 842.777 191.196 842.922 190.911C845.168 186.398 839.713 185.814 839.128 184.821C836.012 179.321 834.075 173.971 831.729 168.896C829.398 163.867 826.37 159.058 821.388 155.267C821.017 154.986 816.595 157.455 817.636 152.727C817.699 152.395 821.96 154.166 818.647 149.567C816.622 146.787 814.047 142.019 810.606 137.755C808.539 135.159 805.832 132.943 802.91 131.837C801.056 131.077 795.154 131.912 793.618 127.295C793.411 126.665 794.629 125.702 794.404 124.632C793.58 121.176 789.994 125.024 789.499 119.87C788.998 114.713 784.618 108.914 775.796 108.573C775.512 108.552 772.211 111.578 769.854 110.602C766.098 109.032 760.906 106.275 756.839 104.936C754.906 104.3 755.341 107.099 754.991 107.03C751.043 106.145 747.507 105.12 744.117 103.973C736.184 101.306 728.759 98.4434 718.525 96.5242C715.84 95.9961 707.926 98.6987 702.893 95.7085C697.348 92.452 703.887 80.3232 690.269 82.7717C684.744 83.7857 677.831 99.3139 668.299 91.2031C663.759 91.697 659.306 91.8532 654.858 91.855C641.222 91.8661 627.881 90.4559 613.901 93.2004C613.075 93.3616 610.607 97.8401 608.644 97.8673C605.736 97.8986 604.021 95.9328 601.942 95.8951C593.18 95.6904 585.28 97.8535 576.855 98.0549C573.656 98.1373 574.651 95.9641 570.834 96.0672C567.015 96.1745 564.642 99.1015 559.406 98.0795C555.443 97.2999 551.184 91.8736 545.955 91.555C546.126 97.1645 542.561 97.2805 536.359 99.1938C535.161 99.5649 536.602 101.421 536.042 101.697C533.769 102.864 531.515 101.401 529.365 102.653C528.845 102.954 528.957 104.866 528.541 105.22C525.009 108.3 518.517 104.466 517.41 103.799C513.12 101.268 511.433 103.898 508.219 103.027C505.039 102.154 509.553 100.389 505.88 99.9984C500.498 99.434 494.098 99.8256 488.125 100.328C485.567 100.543 483.154 100.771 480.89 100.956C477.839 101.219 480.159 103.569 479.729 103.665C473.47 104.904 466.835 102.858 463.893 108.306C458.067 95.7136 460.228 109.963 450.988 108.464C450.269 108.343 448.525 102.287 451.184 101.026C453.805 99.7725 458.196 101.208 461.832 99.3737C462.692 98.9379 467.22 92.5875 467.928 92.1627C473.203 88.8458 474.873 98.043 475.223 98.5198C479.031 103.686 484.754 96.849 486.364 96.2719C486.818 96.1099 487.272 95.9602 487.726 95.8216C494.572 93.6977 500.72 94.2678 506.575 92.4633C510.647 91.22 510.58 85.1133 513.869 85.0474C524.794 84.8375 529.158 93.05 538.872 84.9913C540.96 83.2747 538.332 76.77 546.554 81.4742C547.067 81.7705 553.215 86.1721 556.392 82.9376C556.792 82.5296 556.657 80.5929 557.208 80.3951C560.887 79.1092 563.486 80.5001 567.523 79.5189C571.563 78.5379 576.417 77.1546 581.122 77.5582C583.96 77.7974 587.756 81.2202 589.147 82.0355C593.067 84.387 596.934 80.0101 599.444 82.9835C601.959 85.973 597.564 90.8982 603.847 92.6136C603.846 87.5646 604.14 82.3688 604.282 77.2848C617.966 76.8431 631.49 77.9682 645.291 77.4489C647.022 77.3803 645.198 74.7054 647.047 74.5633C649.64 74.3673 652.198 74.449 654.646 74.6164C659.545 74.9461 664.322 75.5891 669.681 75.0829C675.931 74.4823 682.852 71.6828 689.567 71.1486C693.459 77.0185 703.383 75.4394 710.704 76.5766C713.252 76.9676 712.961 78.4935 714.727 79.1614C721.403 81.7023 718.761 76.3228 720.759 75.7322C729.603 73.4187 728.666 84.8501 738.19 86.569C738.641 86.6207 746.487 82.2511 747.556 82.1996C750.401 81.8579 750.778 82.3195 750.607 83.0195C750.582 83.1188 750.548 83.2237 750.51 83.3329C750.382 83.6859 750.203 84.0823 750.155 84.4781C750.079 85.0307 750.241 85.5757 751.103 85.981C756.597 88.5787 760.083 91.2465 767.404 91.9136C769.531 92.0958 775.641 90.2359 778.423 94.5294C778.784 95.0895 777.759 96.8712 778.115 97.1407C784.646 101.919 787.305 96.1719 792.532 96.1589C797.789 96.1508 802.533 103.664 803.177 105.539C804.997 110.368 799.841 105.258 799.496 105.482C795.516 107.722 800.478 109.548 803.808 111.977C801.091 117.615 805.828 120.265 807.242 114.521C807.385 113.872 804.362 112.632 803.808 111.977C809.966 108.519 816.74 111.913 818.637 121.422C819.27 125.121 816.258 125.59 819.788 129.563C820.398 130.286 821.239 131.125 822.387 132.155C825.487 134.969 827.729 130.941 831.048 133.096C838.683 138.111 842.263 149.812 847.303 157.791C849.157 160.743 849.629 156.619 850.977 158.658C851.023 158.728 851.068 158.798 851.113 158.869C854.373 163.95 854.986 169.435 858.047 174.619C858.332 175.1 860.126 172.925 860.858 174.677C866.364 188.09 868.451 200.755 870.188 216.449C871.155 223.938 872.399 238.403 870.077 247.133C868.6 253.43 865.577 260.249 861.513 266.326C857.101 272.552 852.462 278.839 849.461 284.477C845.992 290.857 848.841 290.914 848.362 294.544C847.382 301.773 835.125 306.745 833.451 306.992C833.44 307.015 837.458 301.806 834.16 303.512C830.872 303.168 833.505 306.917 833.451 306.992C832.45 307.442 822.343 315.845 820.434 317.628C819.465 318.687 821.504 320.082 820.956 320.606C817.809 323.575 814.446 326.307 810.939 328.776C801.013 335.864 790.756 341.553 779.889 346.33C779.625 346.415 778.772 343.904 778.167 344.132C769.671 347.262 766.042 352.707 760.223 357.749C756.359 361.094 752.527 363.125 748.648 363.459C746.683 363.636 744.716 363.381 742.727 362.653C737.821 365.602 729.203 367.204 724.237 367.82C719.313 368.441 720.606 373.378 720.253 373.626C718.91 374.575 717.697 375.37 716.545 376.066C707.421 381.405 698.886 381.648 687.788 384.435C681.633 385.98 669.917 389.895 663.49 392.133C658.476 393.901 655.072 393.537 650.524 395.48C649.895 395.744 651.114 397.779 650.936 397.914C646.351 401.876 647.512 395.854 646.181 395.167C641.305 392.674 638.489 391.401 632.077 394.733C632.077 394.733 632.077 394.733 632.077 394.733C630.693 395.476 627.948 404.385 625.281 405.517C621.716 406.997 622.392 403.883 618.73 405.487C618.411 405.623 618.909 407.322 616.477 407.83C605.26 410.197 592.988 412.057 581.466 414.931C579.886 415.318 582.558 417.574 580.279 418.179C569.655 421 557.889 423.595 547.169 424.67C544.508 424.931 545.7 422.649 545.012 422.206C540.852 419.53 537.079 425.627 536.309 425.899C517.737 432.568 502.096 431.227 483.001 437.515C481.981 437.865 474.882 444.967 470.275 441.106C469.961 440.851 465.364 436.88 462.829 440.765C462.671 441.008 465.427 442.977 461.439 443.536C457.45 444.096 451.431 447.009 445.469 445.42C443.582 444.922 438.595 441.014 434.216 445.783C433.938 446.112 427.678 456.17 423.704 450.843C423.058 449.963 422.339 443.661 416.836 448.018C415.783 448.86 418.175 449.841 415.251 451.295C410.775 453.53 404.187 453.043 398.884 456.884C397.957 457.562 394.383 462.585 390.335 460.001C389.7 459.596 390.364 457.33 388.482 457.429C379.559 457.881 370.633 460.872 361.516 460.916C361.496 460.916 361.477 460.916 361.458 460.916C358.279 460.894 359.298 457.298 355.891 456.94C352.488 456.577 345.711 456.782 342.557 458.86C339.35 460.947 343.964 465.733 338.865 466.973C316.702 472.347 293.944 472.301 271.406 474.596C268.066 474.934 271.094 476.53 266.144 477.164C248.03 479.544 216.725 484.572 200.542 481.738C187.589 479.497 203.334 475.651 193.547 475.109C188.844 474.85 184.293 481.544 183.163 481.829C172.309 484.671 164.382 482.384 154.512 483.818C152.485 484.112 154.644 486.559 152.88 486.782C148.672 487.335 144.188 487.083 139.973 487.046C138.177 487.034 136.528 487.054 134.833 487.19C132.236 487.402 132.874 489.336 130.443 489.284C124.753 489.174 119.663 488.526 114.039 486.828C113.522 486.673 116.889 484.154 112.645 484.165C105.756 484.175 97.2463 482.488 88.7163 484.042C86.1459 484.484 85.8712 489.027 80.2221 485.478C78.94 484.675 81.4169 479.678 73.5543 483.313C72.9041 483.593 69.096 484.826 64.3145 484.766C61.0306 485.12 56.9973 484.643 54.843 481.874C53.7076 480.428 51.4262 475.138 47.8152 474.464C47.2949 474.375 48.3526 477.391 45.3239 476.429C37.1887 473.869 26.553 467.398 19.4633 457.91C17.6718 455.607 16.0967 453.357 14.61 451.129C12.9137 448.537 13.0008 453.833 10.5425 449.815C3.83348 438.773 0.279354 423.663 0.00267654 411.801C-0.0985743 407.427 2.22692 410.268 2.41866 409.923C5.65927 404.77 0.781189 402.109 0.49629 400.354C-0.974483 390.486 2.10057 383.043 3.96459 374.638C4.06532 374.179 4.15884 373.712 4.24394 373.235C4.62959 371.129 1.97365 371.993 1.87965 371.528C1.06587 366.661 4.26605 370.992 5.46731 368.369C8.85944 361.013 11.6161 351.962 14.9263 343.715C16.1469 340.689 12.1521 342.944 13.3125 340.205C20.1895 323.788 31.5835 308.604 43.7675 297.942C46.0692 295.927 46.2692 298.769 47.0498 298.641C49.5035 298.275 51.0362 296.558 52.1289 294.618C53.3152 292.409 53.8102 289.896 54.1945 289.198C57.2869 283.499 60.3263 283.225 64.0867 279.341C82.4834 260.31 108.292 241.595 128.116 227.812C135.611 222.583 142.742 217.846 149.656 213.339C166.482 202.389 182.032 192.709 199.277 180.604C200.825 179.521 197.686 178.274 198.999 177.314C216.058 164.996 233.941 154.54 251.228 142.492C252.652 141.507 249.123 140.627 251.363 138.969C255.936 135.561 262.121 131.802 267.443 129.447C270.041 128.292 268.059 132.222 270.646 131.022C276.671 128.236 282.741 124.672 288.286 120.752C290.633 119.086 285.516 119.063 288.692 117.069C296.834 111.937 304.949 106.862 313.208 102.02C326.89 94.0015 341.073 86.5401 356.491 80.6739C358.196 80.0261 362.174 84.1216 365.044 81.4042C364.584 79.9215 363.73 78.3429 363.078 76.8427C393.913 59.4787 427.568 46.6562 461.37 35.9938C463.79 35.2231 466.243 34.4495 468.666 33.6903C470.194 33.2118 466.663 31.2851 469.627 30.3441C486.741 24.9329 503.17 19.3914 521.397 17.5025C523.207 17.3131 523.643 22.4941 528.533 20.4008C529.402 20.0207 536.894 17.3647 538.615 15.7811C538.843 15.5495 536.845 13.5914 539.309 12.8894C553.629 8.85626 568.889 5.73328 583.624 3.81449C585.984 3.51387 584.109 6.56335 585.787 6.37303C592.626 5.57648 599.556 3.70261 606.344 2.20186C611.585 1.04255 616.716 0.10267 621.787 0.00269596C629.627 -0.134054 627.809 4.77624 632.716 8.14586C633.394 8.61985 638.146 7.71906 638.908 10.1501C640.732 16.2509 639.926 23.4959 642.163 29.939C642.334 30.6459 644.053 30.2726 644.483 30.4425C644.558 30.4871 644.49 30.5831 644.011 30.7285C643.779 30.8 643.476 30.8727 643.307 30.9457C643.14 31.0188 643.143 31.0984 643.156 31.1912C643.244 31.3736 642.882 31.6194 643.631 31.8956C644.426 32.1596 644.925 32.4331 644.853 32.8911C645.276 33.0261 641.245 35.028 640.417 36.4351C639.851 37.3994 641.723 39.6218 640.426 40.9793C639.138 42.335 637 40.5993 634.7 42.3758C632.409 44.1679 634.162 46.7656 629.102 48.245ZM702.684 370.179C697.78 369.238 699.857 377.995 703.821 374.415C704.006 374.231 702.932 370.221 702.684 370.179ZM631.656 84.8038C637.262 88.5883 640.932 82.6792 636.93 79.7275C632.917 76.7843 629.928 83.6589 631.656 84.8038ZM574.672 90.2888C581.266 93.0426 581.586 80.2824 574.828 83.2373C574.435 83.4052 574.285 90.1293 574.672 90.2888ZM614.539 13.4323C614.653 13.5286 617.964 12.9058 618.039 12.7683C619.193 9.5896 612.477 10.8579 614.539 13.4323ZM518.378 97.1591C520.526 98.7219 526.117 96.3197 523.479 94.3673C521.366 92.7943 515.719 95.2123 518.378 97.1591ZM486.573 413.041C486.481 412.924 484.078 413.312 484.282 414.041C484.95 416.388 488.118 415.012 486.573 413.041ZM422.605 108.275C436.889 105.9 446.732 115.196 431.645 116.497C428.896 116.771 436.901 112.161 433.288 111.836C426.556 111.269 423.735 118.617 416.518 116.577C415.201 116.199 421.764 108.381 422.627 108.255C422.62 108.262 422.612 108.268 422.605 108.275ZM696.921 360.742C696.777 360.67 693.58 361.578 693.52 361.715C692.621 364.994 699.213 363.122 696.921 360.742ZM346.006 434.195C345.766 433.982 338.057 434.976 337.823 435.245C334.523 440.491 350.212 438.48 346.006 434.195ZM845.613 218.704C842.399 215.578 841.419 211.821 844.373 208.352C844.886 211.801 845.414 215.251 845.613 218.704Z" fill="#FDEC38"/>
</svg>
